<?xml version="1.0" encoding="UTF-8" standalone="no"?>
<!-- Created with Inkscape (http://www.inkscape.org/) -->

<svg
   xmlns:dc="http://purl.org/dc/elements/1.1/"
   xmlns:cc="http://creativecommons.org/ns#"
   xmlns:rdf="http://www.w3.org/1999/02/22-rdf-syntax-ns#"
   xmlns:svg="http://www.w3.org/2000/svg"
   xmlns="http://www.w3.org/2000/svg"
   xmlns:sodipodi="http://sodipodi.sourceforge.net/DTD/sodipodi-0.dtd"
   xmlns:inkscape="http://www.inkscape.org/namespaces/inkscape"
   width="264.58334mm"
   height="43.950584mm"
   viewBox="0 0 264.58334 43.950584"
   version="1.1"
   id="svg903"
   inkscape:version="0.92.2 (5c3e80d, 2017-08-06)"
   sodipodi:docname="RAV4.svg">
  <defs
     id="defs897">
    <clipPath
       clipPathUnits="userSpaceOnUse"
       id="clipPath22">
      <path
         d="M 0,0 H 1360 V 765 H 0 Z"
         id="path20"
         inkscape:connector-curvature="0" />
    </clipPath>
  </defs>
  <sodipodi:namedview
     id="base"
     pagecolor="#ffffff"
     bordercolor="#666666"
     borderopacity="1.0"
     inkscape:pageopacity="0.0"
     inkscape:pageshadow="2"
     inkscape:zoom="1"
     inkscape:cx="558.77255"
     inkscape:cy="-149.81186"
     inkscape:document-units="mm"
     inkscape:current-layer="layer1"
     showgrid="false"
     fit-margin-top="0"
     fit-margin-left="0"
     fit-margin-right="0"
     fit-margin-bottom="0"
     inkscape:window-width="1600"
     inkscape:window-height="837"
     inkscape:window-x="-8"
     inkscape:window-y="-8"
     inkscape:window-maximized="1" />
  <metadata
     id="metadata900">
    <rdf:RDF>
      <cc:Work
         rdf:about="">
        <dc:format>image/svg+xml</dc:format>
        <dc:type
           rdf:resource="http://purl.org/dc/dcmitype/StillImage" />
        <dc:title></dc:title>
      </cc:Work>
    </rdf:RDF>
  </metadata>
  <g
     inkscape:label="Layer 1"
     inkscape:groupmode="layer"
     id="layer1"
     transform="translate(-67.531712,-284.47122)">
    <g
       transform="matrix(0.75595195,0,0,-0.75595195,-6.1732249,702.82598)"
       id="g16"
       style="fill:#000000">
      <g
         id="g18"
         clip-path="url(#clipPath22)"
         style="fill:#000000">
        <g
           id="g24"
           transform="translate(435.0587,516.0371)"
           style="fill:#000000">
          <path
             d="m 0,0 9.282,37.34 c -1.575,0 -12.39,0.077 -19.711,0.01 -6.344,-0.057 -11.352,-1.301 -16.12,-3.602 -12.666,-6.109 -37.681,-21.004 -50.358,-30.464 -3.401,-2.54 -4.628,-4.516 -5.54,-6.633 -1.866,-4.471 -2.976,-9.281 -2.976,-9.281 h 61.66 l -2.015,-8.132 H -5.21 l 1.994,8.132 H 9.281 L 12.441,0 Z M -14.353,24.468 C -14.521,23.914 -20.614,0 -20.614,0 H -56.81 c 7.652,5.616 31.452,20.283 41.683,24.863 0.344,0.155 0.939,0.158 0.774,-0.395"
             style="fill:#000000;fill-opacity:1;fill-rule:nonzero;stroke:none"
             id="path26"
             inkscape:connector-curvature="0" />
        </g>
        <g
           id="g28"
           transform="translate(353.7966,550.7585)"
           style="fill:#000000">
          <path
             d="m 0,0 c 0,0 -37.266,-33.021 -40.759,-36.017 -3.306,-2.834 -4.991,-3.661 -6.656,-3.994 -1.07,-0.214 -2.03,0.081 -2.03,0.081 l -3.828,41.911 h -19.913 l 5.563,-53.458 23.038,0.033 c 2.994,0 7.788,0.198 14.224,5.361 12.227,9.814 37.348,30.529 55.481,47.082 C 17.134,0.832 0,0 0,0"
             style="fill:#000000;fill-opacity:1;fill-rule:nonzero;stroke:none"
             id="path30"
             inkscape:connector-curvature="0" />
        </g>
        <g
           id="g32"
           transform="translate(244.2295,552.7391)"
           style="fill:#000000">
          <path
             d="m 0,0 c -6.25,0 -11.995,-0.981 -19.069,-6.783 -7.074,-5.802 -5.78,-4.841 -8.887,-7.606 -12.09,-10.75 -32.955,-29.739 -34.936,-31.72 -4.801,1.258 -8.919,3.089 -12.575,5.413 -1.644,1.043 -12.811,8.078 -12.811,8.078 h 16.355 c 7.088,0 15.204,1.712 20.234,8.801 2.305,3.248 4.579,8.555 4.001,13.833 C -48.602,-1.639 -58.038,0 -69.241,0 c 0,0 -49.288,-0.231 -52.947,-0.231 -3.162,0 -4.514,-0.584 -5.356,-2.606 -0.842,-2.022 -19.186,-50.657 -19.186,-50.657 h 21.172 l 8.628,22.86 c 0,0 21.409,-15.475 25.69,-18.659 4.28,-3.184 6.913,-4.06 12.181,-4.06 5.268,0 23.665,-0.111 30.469,0 3.259,3.26 9.513,9.241 16.123,15.45 l 43.034,0.103 1.354,-15.73 19.531,0.036 L 25.891,0 Z m -113.729,-22.475 c 0,0 3.588,9.858 3.775,10.377 0.187,0.517 0.612,0.861 1.354,0.861 h 37.82 c 3.201,0 4.451,-0.743 3.902,-2.828 -0.548,-2.086 -2.265,-5.234 -4.131,-6.552 -1.865,-1.317 -4.343,-1.858 -7.392,-1.858 z m 92.627,-5.12 c 5.348,5.227 13.087,11.878 15.371,13.648 2.908,2.254 4.434,2.752 7.891,2.916 2.057,0.099 4.468,0.144 5.409,0.144 0.745,0 0.962,-0.264 1.009,-0.911 0.017,-0.228 1.069,-15.764 1.069,-15.764 z"
             style="fill:#000000;fill-opacity:1;fill-rule:nonzero;stroke:none"
             id="path34"
             inkscape:connector-curvature="0" />
        </g>
      </g>
    </g>
  </g>
</svg>
